<svg xmlns="http://www.w3.org/2000/svg" version="1.1" xmlns:xlink="http://www.w3.org/1999/xlink" xmlns:svgjs="http://svgjs.dev/svgjs" width="1000" height="1000" viewBox="0 0 1000 1000"><rect width="1000" height="1000" fill="#000000"></rect><g transform="matrix(0.7,0,0,0.7,149.90044910179654,149.90044910179637)"><svg viewBox="0 0 334 334" data-background-color="#ffffff" preserveAspectRatio="xMidYMid meet" height="1000" width="1000" xmlns="http://www.w3.org/2000/svg" xmlns:xlink="http://www.w3.org/1999/xlink"><g id="tight-bounds" transform="matrix(1,0,0,1,0.04749999999998522,0.04750000000001364)"><svg viewBox="0 0 333.90454557049503 333.90454557049503" height="333.90454557049503" width="333.90454557049503"><g><svg></svg></g><g><svg viewBox="0 0 333.90454557049503 333.90454557049503" height="333.90454557049503" width="333.90454557049503"><g><path d="M0 166.952c0-92.205 74.747-166.952 166.952-166.952 92.205 0 166.952 74.747 166.953 166.952 0 92.205-74.747 166.952-166.953 166.953-92.205 0-166.952-74.747-166.952-166.953zM166.952 316.63c82.665 0 149.677-67.013 149.678-149.678 0-82.665-67.013-149.677-149.678-149.677-82.665 0-149.677 67.013-149.677 149.677 0 82.665 67.013 149.677 149.677 149.678z" data-fill-palette-color="tertiary" fill="#ffffff" stroke="transparent"></path><ellipse rx="160.27418187383762" ry="160.27418187383762" cx="166.95227278524752" cy="166.95227278524752" fill="#ffffff" stroke="transparent" stroke-width="0" fill-opacity="1" data-fill-palette-color="tertiary"></ellipse></g><g transform="matrix(1,0,0,1,103.17907601760294,71.17305217166896)"><svg viewBox="0 0 127.54639353528916 191.55844122715712" height="191.55844122715712" width="127.54639353528916"><g><svg viewBox="0 0 127.54639353528916 191.55844122715712" height="191.55844122715712" width="127.54639353528916"><g><svg viewBox="0 0 127.54639353528916 191.55844122715712" height="191.55844122715712" width="127.54639353528916"><g><svg viewBox="0 0 127.54639353528916 191.55844122715712" height="191.55844122715712" width="127.54639353528916"><g id="textblocktransform"><svg viewBox="0 0 127.54639353528916 191.55844122715712" height="191.55844122715712" width="127.54639353528916" id="textblock"><g><svg viewBox="0 0 127.54639353528916 191.55844122715712" height="191.55844122715712" width="127.54639353528916"><g transform="matrix(1,0,0,1,0,0)"><svg width="127.54639353528916" viewBox="4 -39.70000076293945 26.700000762939453 40.10000228881836" height="191.55844122715712" data-palette-color="#ffffff"><path d="M24.75-8.4L24.75-14.75Q24.75-15.9 23.9-16.98 23.05-18.05 20.9-18.2L20.9-18.2Q19.5-16.5 17.5-16.5L17.5-16.5Q15.8-16.5 14.6-17.7 13.4-18.9 13.4-20.65L13.4-20.65Q13.4-22.4 14.6-23.6 15.8-24.8 17.5-24.8L17.5-24.8Q18.4-24.8 19.28-24.3 20.15-23.8 20.85-23.1L20.85-23.1Q21.95-23.15 22.55-23.45 23.15-23.75 23.43-24.18 23.7-24.6 23.75-25.15 23.8-25.7 23.8-26.25L23.8-26.25 23.8-31.3Q23.8-32.55 23.03-33.6 22.25-34.65 20.4-34.65L20.4-34.65 9.95-34.65 9.9-1.65Q9.9-0.65 8.97-0.13 8.05 0.4 6.95 0.4L6.95 0.4Q4 0.4 4-2L4-2 4-36.7Q4-38.5 4.93-39.1 5.85-39.7 7.15-39.7L7.15-39.7 21.65-39.7Q22.95-39.7 24.43-39.2 25.9-38.7 27.2-37.85L27.2-37.85 27.15-37.85Q28.45-36.9 29.08-35.35 29.7-33.8 29.7-31.75L29.7-31.75 29.7-26.1Q29.7-24.1 28.85-22.83 28-21.55 27.05-20.8L27.05-20.8Q27.7-20.4 28.3-19.98 28.9-19.55 29.3-19.05L29.3-19.05Q29.95-18.35 30.33-17.4 30.7-16.45 30.7-15.15L30.7-15.15 30.7-8Q30.7-3.9 27.5-1.95L27.5-1.95Q25.9-0.95 24.48-0.45 23.05 0.05 21.65 0.05L21.65 0.05 14.25 0.05Q13.4 0.05 12.93-0.65 12.45-1.35 12.45-2.5L12.45-2.5Q12.45-5 14.55-5L14.55-5 21.4-5Q23.25-5 24-6.05 24.75-7.1 24.75-8.4L24.75-8.4Z" opacity="1" transform="matrix(1,0,0,1,0,0)" fill="#000000" class="wordmark-text-0" data-fill-palette-color="quaternary" id="text-0"></path></svg></g></svg></g></svg></g></svg></g><g></g></svg></g></svg></g></svg></g></svg></g><defs></defs></svg><rect width="333.90454557049503" height="333.90454557049503" fill="none" stroke="none" visibility="hidden"></rect></g></svg></g></svg>